<svg id="그룹_1882" data-name="그룹 1882" xmlns="http://www.w3.org/2000/svg" width="432" height="62" viewBox="0 0 432 62">
  <path id="패스_650" data-name="패스 650" d="M10.551,38.934V60.978H0V1.1Q10.549.655,12.336.652q14.082,0,20.6,4.357t6.513,13.6q0,20.616-24.1,20.615Q13.554,39.221,10.551,38.934Zm0-28.628V29.487a41.719,41.719,0,0,0,4.221.286q7.222,0,10.551-2.434t3.328-7.914q0-9.324-14.894-9.324A24.425,24.425,0,0,0,10.551,10.306Z" fill="#101010"/>
  <path id="패스_651" data-name="패스 651" d="M82.989,60.978V33.986H59.33V60.978H48.779V1.062H59.33V24.537H82.989V1.062h10.43V60.978Z" fill="#101010"/>
  <path id="패스_652" data-name="패스 652" d="M102.753,30.509q0-12.8,6.96-21.655T128.32,0q12.822,0,19.6,8.016T154.7,30.509q0,14.478-7.081,22.984T127.508,62q-11.972,0-18.363-8.424T102.753,30.509Zm10.957,0q0,10.51,3.531,16.278a11.336,11.336,0,0,0,10.267,5.766q7.914,0,12.073-5.644t4.16-16.4q0-21.062-15.421-21.064a12.217,12.217,0,0,0-10.835,5.707Q113.711,20.856,113.71,30.509Z" fill="#101010"/>
  <path id="패스_653" data-name="패스 653" d="M186.557,10.511V60.978H176.006V10.511H157.1V1.062h49.226v9.449Z" fill="#101010"/>
  <path id="패스_654" data-name="패스 654" d="M207.054,30.509q0-12.8,6.96-21.655T232.622,0q12.822,0,19.6,8.016T259,30.509q0,14.478-7.085,22.984T231.809,62q-11.97,0-18.363-8.424T207.054,30.509Zm10.957,0q0,10.51,3.531,16.278a11.336,11.336,0,0,0,10.267,5.766q7.912,0,12.074-5.644t4.158-16.4q0-21.062-15.419-21.064a12.222,12.222,0,0,0-10.836,5.707Q218.012,20.856,218.011,30.509Z" fill="#101010"/>
  <path id="패스_655" data-name="패스 655" d="M323.769,61.02H313.543l-6.169-32.31L295.4,61.795h-3.773L279.655,28.71l-6.411,32.31H263.057L275.029,1.062h5.6l12.864,40.367,12.58-40.367h5.561Z" fill="#101010"/>
  <path id="패스_656" data-name="패스 656" d="M327.421,30.509q0-12.8,6.958-21.655T352.987,0q12.822,0,19.6,8.016t6.778,22.493q0,14.478-7.083,22.984T352.174,62q-11.97,0-18.363-8.424T327.421,30.509Zm10.956,0q0,10.51,3.531,16.278a11.335,11.335,0,0,0,10.266,5.766q7.915,0,12.074-5.644t4.16-16.4q0-21.062-15.421-21.064a12.222,12.222,0,0,0-10.836,5.707Q338.378,20.856,338.377,30.509Z" fill="#101010"/>
  <path id="패스_657" data-name="패스 657" d="M427.7,61.795l-28.853-37.91V61.02H388.7V1.062h5.072l28.083,36.155V1.062H432V61.795Z" fill="#101010"/>
</svg>
